<svg xmlns="http://www.w3.org/2000/svg" version="1.1" xmlns:xlink="http://www.w3.org/1999/xlink" xmlns:svgjs="http://svgjs.com/svgjs" width="512" height="512" x="0" y="0" viewBox="0 0 48 48" style="enable-background:new 0 0 512 512" xml:space="preserve" class=""><g><path fill="#f74545" d="M25 35c0 11.53-14.76 16.4-21.65 7.15A12 12 0 1 1 25 35z" data-original="#b2e5fb" class="" opacity="1"></path><path fill="#f74545" d="M22.5 32.5a12 12 0 0 1-19.15 9.65 12 12 0 0 1 16.8-16.8 12 12 0 0 1 2.35 7.15z" data-original="#9fdbf3" class="" opacity="1"></path><path fill="#f74545" d="M13 48a13 13 0 1 1 13-13 13 13 0 0 1-13 13zm0-24a11 11 0 1 0 11 11 11 11 0 0 0-11-11z" data-original="#231f20" class="" opacity="1"></path><path fill="#f74545" d="M13 44a1 1 0 0 1 0-2 7 7 0 0 0 7-6.12 1 1 0 0 1 2 .24A9 9 0 0 1 13 44z" data-original="#231f20" class="" opacity="1"></path><path fill="#f74545" d="M47 25a8 8 0 1 1-14.56-4.56A8 8 0 0 1 47 25z" data-original="#b2e5fb" class="" opacity="1"></path><path fill="#f74545" d="M45 27a7.87 7.87 0 0 1-1.44 4.56A7.87 7.87 0 0 1 39 33a8 8 0 0 1-6.56-12.56A8 8 0 0 1 45 27z" data-original="#9fdbf3" class="" opacity="1"></path><path fill="#f74545" d="M39 34a9 9 0 1 1 9-9 9 9 0 0 1-9 9zm0-16a7 7 0 1 0 7 7 7 7 0 0 0-7-7z" data-original="#231f20" class="" opacity="1"></path><path fill="#f74545" d="M44 26a1 1 0 0 1-1-1 4 4 0 0 0-4-4 1 1 0 0 1 0-2c5.52 0 7.41 7 5 7z" data-original="#231f20" class="" opacity="1"></path><path fill="#f74545" d="M30 7a6 6 0 1 1-6-6 6 6 0 0 1 6 6z" data-original="#b2e5fb" class="" opacity="1"></path><path fill="#f74545" d="M20.88 12.12C17.6 6.8 23.81.61 29.12 3.88c3.26 5.3-2.9 11.53-8.24 8.24z" data-original="#9fdbf3" class="" opacity="1"></path><path fill="#f74545" d="M24 14a7 7 0 1 1 7-7 7 7 0 0 1-7 7zm0-12a5 5 0 1 0 5 5 5 5 0 0 0-5-5z" data-original="#231f20" class="" opacity="1"></path><path fill="#f74545" d="M21 8c-2.1 0-.81-5 3-5a1 1 0 0 1 0 2 2 2 0 0 0-2 2 1 1 0 0 1-1 1z" data-original="#231f20" class="" opacity="1"></path><path fill="#f74545" d="M12 13a4 4 0 1 1-7.28-2.28A4 4 0 0 1 12 13z" data-original="#b2e5fb" class="" opacity="1"></path><path fill="#f74545" d="M10.28 16.28a4 4 0 0 1-5.56-5.56 4 4 0 0 1 5.56 5.56z" data-original="#9fdbf3" class="" opacity="1"></path><path fill="#f74545" d="M8 18a5 5 0 1 1 5-5 5 5 0 0 1-5 5zm0-8a3 3 0 1 0 3 3 3 3 0 0 0-3-3z" data-original="#231f20" class="" opacity="1"></path></g></svg>