<svg xmlns="http://www.w3.org/2000/svg" width="17.023" height="17.023" viewBox="0 0 17.023 17.023">
  <g id="Group_2" data-name="Group 2" transform="translate(-40.489 -30.489)">
    <path id="Icon_metro-cross" data-name="Icon metro-cross" d="M17.639,14.193h0L12.785,9.339l4.854-4.854h0a.5.5,0,0,0,0-.707L15.346,1.485a.5.5,0,0,0-.707,0h0L9.785,6.339,4.931,1.485h0a.5.5,0,0,0-.707,0L1.931,3.778a.5.5,0,0,0,0,.707h0L6.785,9.339,1.931,14.193h0a.5.5,0,0,0,0,.707l2.293,2.293a.5.5,0,0,0,.707,0h0l4.854-4.854,4.854,4.854h0a.5.5,0,0,0,.707,0L17.639,14.9a.5.5,0,0,0,0-.707Z" transform="translate(39.215 29.661)" fill="#fff" stroke="#000" stroke-width="1"/>
  </g>
</svg>
