<svg xmlns="http://www.w3.org/2000/svg" version="1.1" xmlns:xlink="http://www.w3.org/1999/xlink" xmlns:svgjs="http://svgjs.com/svgjs" width="512" height="512" x="0" y="0" viewBox="0 0 512 512" style="enable-background:new 0 0 512 512" xml:space="preserve" class=""><g><circle cx="256" cy="256" r="256" style="" fill="#e6021f" data-original="#e6021f" class=""></circle><path d="M507.635 303.229 292.951 88.544c-21.36-24.615-62.112-22.061-79.419 7.696L80.754 324.533c-12.404 21.326-6.709 46.178 9.231 60.924l123.021 122.929A257.593 257.593 0 0 0 256 512c125.248 0 229.472-89.951 251.635-208.771z" style="" fill="#af1916" data-original="#af1916" class=""></path><path d="M213.532 96.24 80.754 324.533c-19.049 32.752 4.579 73.827 42.467 73.827h265.556c37.888 0 61.516-41.076 42.467-73.827L298.467 96.24c-18.944-32.571-65.991-32.571-84.935 0z" style="" fill="#fee572" data-original="#fee572" class=""></path><path d="M388.78 398.36H256V71.81c16.5 0 33 8.15 42.47 24.43l132.78 228.29c19.04 32.75-4.581 73.83-42.47 73.83z" style="" fill="#ffcb26" data-original="#ffcb26" class=""></path><path d="M386.44 374.022H125.56c-9.733 0-18.442-5.037-23.295-13.474-4.854-8.437-4.83-18.497.064-26.912l130.44-224.273c4.866-8.368 13.55-13.363 23.23-13.363s18.365 4.995 23.231 13.363l130.44 224.273c4.894 8.414 4.918 18.475.064 26.912-4.853 8.437-13.561 13.474-23.294 13.474zM255.999 107.768c-5.442 0-10.323 2.808-13.058 7.511l-130.44 224.273c-2.751 4.73-2.764 10.385-.035 15.127 2.728 4.742 7.622 7.574 13.094 7.574h260.88c5.471 0 10.366-2.832 13.094-7.574 2.728-4.743 2.715-10.398-.035-15.127L269.058 115.28c-2.735-4.704-7.617-7.512-13.059-7.512z" style="" fill="#6a686f" data-original="#6a686f" class=""></path><path d="m409.669 333.64-130.44-224.28C274.359 101 265.68 96 255.999 96v11.77c5.44 0 10.32 2.81 13.06 7.51L399.5 339.55c2.75 4.73 2.76 10.39.03 15.13-2.72 4.74-7.62 7.57-13.09 7.57H256v11.77h130.44c9.73 0 18.44-5.03 23.3-13.47 4.85-8.44 4.83-18.5-.071-26.91z" style="" fill="#38383a" data-original="#38383a" class=""></path><path d="M241.08 273.541V173.33h29.84v100.211h-29.84zm0 59.459v-33.626h29.84V333h-29.84z" style="" fill="#6a686f" data-original="#6a686f" class=""></path><path d="M255.999 299.37V333h14.92v-33.63h-14.92zm0-126.04v100.21h14.92V173.33h-14.92z" style="" fill="#38383a" data-original="#38383a" class=""></path></g></svg>